<svg preserveAspectRatio="xMidYMid meet" data-bbox="0 0 826.185 173.231" xmlns="http://www.w3.org/2000/svg" viewBox="0 0 826.185 173.231" height="173.231" width="826.185" data-type="color" role="presentation" aria-hidden="true" aria-label="" wixshapeid="866e91_3cdc92271e3b4249bbff91ef1cd656c4.svg">
    <g>
        <path aria-label="bim" d="M4542.42 3249.458v-163.112h20.577v60.211h1.744q2.267-3.185 6.277-8.123 4.098-5.018 11.684-8.92 7.673-3.983 20.75-3.983 16.915 0 29.819 7.726 12.904 7.724 20.14 21.902 7.237 14.177 7.237 33.45 0 19.434-7.237 33.69-7.236 14.177-20.053 21.982c-8.544 5.15-18.397 5.486-29.557 5.486-32.34 0-26.584-.345-41.502-.31zm20.228-61.167q0 13.86 4.447 24.45 4.447 10.515 12.99 16.487 8.545 5.894 20.926 5.894 12.904 0 21.536-6.212 8.718-6.292 13.078-16.885 4.447-10.672 4.447-23.734 0-12.903-4.36-23.256-4.272-10.434-12.99-16.487-8.633-6.132-21.71-6.132-12.556 0-21.1 5.814-8.545 5.734-12.904 16.088-4.36 10.274-4.36 23.973m129.388 61.167v-122.334h20.576v122.334zm10.463-142.723q-6.017 0-10.376-3.743-4.272-3.744-4.272-9t4.272-9q4.36-3.743 10.376-3.743t10.288 3.743q4.36 3.744 4.36 9t-4.36 9q-4.273 3.743-10.288 3.743m47.779 142.723v-122.334h19.879v19.115h1.743q4.185-9.797 13.515-15.212 9.329-5.496 22.407-5.496 13.252 0 22.059 5.496 8.893 5.415 13.863 15.212h1.395q5.144-9.478 15.432-15.053 10.289-5.655 24.674-5.655 17.96 0 29.383 10.274 11.421 10.195 11.422 31.779v81.874h-20.577v-81.874q0-13.54-8.108-19.354t-19.095-5.814q-14.123 0-21.884 7.805-7.76 7.725-7.76 19.593v79.644h-20.925v-83.786q0-10.433-7.411-16.805-7.41-6.45-19.094-6.451-8.022 0-14.997 3.902-6.888 3.903-11.16 10.832-4.185 6.85-4.185 15.85v76.458z" style="-inkscape-font-specification:Inter" font-size="93.299" font-family="Inter" fill="#4d4d4d" transform="translate(-4542.42 -3081.249)" data-color="1"></path>
        <path aria-label="hub" d="M4980.442 3178.34v73.591h-20.576V3088.82h20.576l.453 39.077c10.065.013 22.477.44 40.7.108q13.689 0 23.977 5.017 10.288 4.938 15.955 15.212 5.755 10.194 5.755 25.964v77.733h-20.577v-76.458q0-14.575-8.282-22.54-8.196-8.044-22.757-8.044-10.113 0-18.135 3.903-7.934 3.903-12.555 11.389-4.534 7.486-4.534 18.159m208.904 23.575v-72.317h20.576v122.333h-20.576v-20.707h-1.395q-4.708 9.318-14.648 15.849-9.939 6.45-25.11 6.451-12.555 0-22.32-5.017-9.765-5.098-15.345-15.292-5.58-10.275-5.58-25.885v-77.732h20.576v76.458q0 13.38 8.196 21.345 8.283 7.964 21.1 7.964 7.672 0 15.606-3.584 8.02-3.584 13.427-10.99 5.493-7.408 5.493-18.876m61.032 50.016V3088.82h20.576v60.21h1.744q2.267-3.185 6.277-8.123 4.098-5.017 11.684-8.92 7.673-3.982 20.75-3.982 16.915 0 29.819 7.725t20.14 21.902 7.237 33.451q0 19.433-7.237 33.69-7.236 14.175-20.053 21.982-12.817 7.725-29.557 7.725-12.903 0-20.663-3.903-7.76-3.981-11.945-9-4.184-5.097-6.452-8.442h-2.441v18.796zm20.227-61.167q0 13.86 4.447 24.451 4.447 10.513 12.991 16.487 8.544 5.893 20.925 5.893 12.904 0 21.536-6.212 8.718-6.292 13.078-16.885 4.447-10.671 4.447-23.734 0-12.901-4.36-23.256-4.272-10.432-12.99-16.486-8.633-6.132-21.71-6.133-12.556 0-21.1 5.814-8.545 5.735-12.904 16.089-4.36 10.274-4.36 23.973" style="-inkscape-font-specification:Inter" font-size="93.299" font-family="Inter" fill="#5085a5" transform="translate(-4542.42 -3081.249)" data-color="2"></path>
        <path d="M826.031 154.186v18.552h-15.385" fill="#5085a5" data-color="2"></path>
    </g>
</svg>